<mxfile host="drawio-plugin" modified="2022-10-28T17:23:55.371Z" agent="5.0 (X11; Linux x86_64) AppleWebKit/537.36 (KHTML, like Gecko) Chrome/98.0.4758.102 Safari/537.36" version="15.5.4" etag="FBAdrMDger1ZVp4JYuNI" type="embed"><diagram id="hD2e70-5KstFpmdVwq69" name="Page-1"><mxGraphModel dx="743" dy="712" grid="1" gridSize="10" guides="1" tooltips="1" connect="1" arrows="1" fold="1" page="1" pageScale="1" pageWidth="827" pageHeight="1169" math="0" shadow="0"><root><mxCell id="0"/><mxCell id="1" parent="0"/><mxCell id="4" style="edgeStyle=orthogonalEdgeStyle;rounded=0;orthogonalLoop=1;jettySize=auto;html=1;exitX=0.5;exitY=0;exitDx=0;exitDy=0;entryX=0.5;entryY=1;entryDx=0;entryDy=0;" edge="1" parent="1" source="2" target="3"><mxGeometry relative="1" as="geometry"/></mxCell><mxCell id="2" value="max&lt;br&gt;num1&lt;br&gt;num2" style="shape=parallelogram;perimeter=parallelogramPerimeter;whiteSpace=wrap;html=1;fixedSize=1;" vertex="1" parent="1"><mxGeometry x="320" y="100" width="230" height="100" as="geometry"/></mxCell><mxCell id="3" value="Начало программы Task01.java" style="ellipse;whiteSpace=wrap;html=1;" vertex="1" parent="1"><mxGeometry x="310" width="220" height="70" as="geometry"/></mxCell><mxCell id="6" style="edgeStyle=orthogonalEdgeStyle;rounded=0;orthogonalLoop=1;jettySize=auto;html=1;" edge="1" parent="1" source="5" target="2"><mxGeometry relative="1" as="geometry"/></mxCell><mxCell id="16" value="" style="edgeStyle=orthogonalEdgeStyle;rounded=0;orthogonalLoop=1;jettySize=auto;html=1;" edge="1" parent="1" source="5" target="15"><mxGeometry relative="1" as="geometry"/></mxCell><mxCell id="5" value="n = 1 ... , max" style="rhombus;whiteSpace=wrap;html=1;" vertex="1" parent="1"><mxGeometry x="342" y="280" width="186" height="90" as="geometry"/></mxCell><mxCell id="9" style="edgeStyle=orthogonalEdgeStyle;rounded=0;orthogonalLoop=1;jettySize=auto;html=1;entryX=0.038;entryY=0.522;entryDx=0;entryDy=0;entryPerimeter=0;exitX=0;exitY=0.5;exitDx=0;exitDy=0;" edge="1" parent="1" source="13" target="5"><mxGeometry relative="1" as="geometry"><mxPoint x="435" y="620" as="targetPoint"/><mxPoint x="302.5" y="492.5" as="sourcePoint"/><Array as="points"><mxPoint x="375" y="493"/><mxPoint x="240" y="493"/><mxPoint x="240" y="327"/></Array></mxGeometry></mxCell><mxCell id="12" style="edgeStyle=orthogonalEdgeStyle;rounded=0;orthogonalLoop=1;jettySize=auto;html=1;entryX=0.5;entryY=1;entryDx=0;entryDy=0;" edge="1" parent="1" source="10" target="5"><mxGeometry relative="1" as="geometry"/></mxCell><mxCell id="14" value="" style="edgeStyle=orthogonalEdgeStyle;rounded=0;orthogonalLoop=1;jettySize=auto;html=1;" edge="1" parent="1" source="10" target="13"><mxGeometry relative="1" as="geometry"/></mxCell><mxCell id="10" value="&lt;pre style=&quot;background-color: rgb(43 , 43 , 43) ; color: rgb(169 , 183 , 198) ; font-family: &amp;#34;jetbrains mono&amp;#34; , monospace&quot;&gt;n % num1 == &lt;span style=&quot;color: rgb(104 , 151 , 187)&quot;&gt;0 &lt;/span&gt;|| n % num2 ==&lt;span style=&quot;color: rgb(104 , 151 , 187)&quot;&gt;0&lt;/span&gt;&lt;/pre&gt;" style="rounded=0;whiteSpace=wrap;html=1;" vertex="1" parent="1"><mxGeometry x="317.5" y="400" width="235" height="50" as="geometry"/></mxCell><mxCell id="13" value="&lt;pre style=&quot;background-color: #2b2b2b ; color: #a9b7c6 ; font-family: &amp;#34;jetbrains mono&amp;#34; , monospace ; font-size: 9 8pt&quot;&gt;summa += n&lt;/pre&gt;" style="shape=document;whiteSpace=wrap;html=1;boundedLbl=1;rounded=0;" vertex="1" parent="1"><mxGeometry x="375" y="480" width="120" height="80" as="geometry"/></mxCell><mxCell id="18" value="" style="edgeStyle=orthogonalEdgeStyle;rounded=0;orthogonalLoop=1;jettySize=auto;html=1;" edge="1" parent="1" source="15" target="17"><mxGeometry relative="1" as="geometry"/></mxCell><mxCell id="15" value="summa" style="shape=parallelogram;perimeter=parallelogramPerimeter;whiteSpace=wrap;html=1;fixedSize=1;" vertex="1" parent="1"><mxGeometry x="610" y="620" width="120" height="60" as="geometry"/></mxCell><mxCell id="17" value="Конец" style="ellipse;whiteSpace=wrap;html=1;" vertex="1" parent="1"><mxGeometry x="330" y="800" width="120" height="60" as="geometry"/></mxCell></root></mxGraphModel></diagram></mxfile>